<svg width="284" height="246" viewBox="0 0 284 246" fill="none" xmlns="http://www.w3.org/2000/svg">
<g clip-path="url(#clip0_62_0)">
<path d="M92.0011 131.298L110.984 61.4721L159.593 29.8421H169.469L218.836 0V9.54835L172.838 36.4055L231.745 13.1293L253.01 13.7278L238.581 27.4531L178.579 46.5498L247.694 34.019L273.516 34.615L250.731 44.1633L189.213 54.9062L253.01 53.7142L281.113 60.2776L253.01 69.23L195.29 65.649L241.617 75.1999L254.53 85.9428L236.302 87.7333L199.847 76.9879L235.54 94.2966L241.617 105.638L206.682 107.428L215.796 113.936L218.836 125.929L207.441 131.298L211.239 141.445L202.125 145.624L202.884 152.786H186.554V160.547H172.838L177.821 166.514L157.318 164.128L177.821 174.269L193.773 183.224L253.01 187.401L261.365 195.755L253.01 200.533L211.239 190.389L257.567 205.309L264.402 211.872H245.413L211.239 200.533L252.251 216.049L257.567 223.216L245.413 226.193L183.139 202.922L164.15 201.728L177.062 219.63L164.912 216.647L172.838 226.193L130.735 223.216L115.544 213.662L113.266 202.922L101.87 178.446L60.0995 156.362L70.772 156.532L60.0995 148.574L74.8287 147.78L64.7015 143.403L74.3221 142.208L65.7149 137.433L77.3589 134.648L67.7384 127.882L92.0011 131.298Z" fill="black"/>
<path d="M91.3696 120.19L42.0795 107.193L35.6669 92.3362L25.5398 102.95V110.905L55.2468 123.639L89.3397 128.678L91.3696 120.19Z" fill="black"/>
<path d="M138.628 228.23L130.527 234.063V239.373L131.873 243.35L125.125 240.431V233.538L120.736 240.167L123.098 246L115.676 238.574L123.776 228.23L129.511 227.063L138.628 228.23Z" fill="black"/>
<path d="M119.765 229.556L113.31 232.308L111.28 238.042L115.676 242.653L113.31 238.075L119.765 229.556Z" fill="black"/>
<path d="M118.961 221.456L106.979 229.35L104.616 233.989L100.569 235.234L105.549 226.193L97.1031 229.414L94.9118 238.564L92.0428 233.923L96.9385 224.441L90.5227 229.016L89.8515 236.178L86.5564 230.01L94.4051 220.396H108.921L113.398 215.757L118.961 221.456Z" fill="black"/>
<path d="M3.59843 137.699L9.6754 132.921H19.4605L19.8026 130.266L29.9298 126.553H60.0983L70.4385 133.187L54.2344 134.782L68.7506 140.149L52.8854 142.472L67.7405 146.451H54.2344L63.6903 153.745H54.073L16.6011 144.595H6.98063L0.906891 147.379L3.59843 137.699ZM28.5808 136.347C29.9685 136.347 31.0916 135.462 31.0916 134.374C31.0916 133.281 29.9653 132.399 28.5808 132.399C27.1898 132.399 26.0635 133.284 26.0635 134.374C26.0635 135.462 27.193 136.347 28.5808 136.347Z" fill="black"/>
</g>
<defs>
<clipPath id="clip0_62_0">
<rect width="284" height="246" fill="white"/>
</clipPath>
</defs>
</svg>
