<svg width="284" height="246" viewBox="0 0 284 246" fill="none" xmlns="http://www.w3.org/2000/svg">
<path d="M152.161 63.6031C152.161 63.6031 164.44 51.7076 175.449 47.7424C175.449 47.7424 149.621 12.3863 95.0002 0.821167C95.0002 0.821167 76.3699 12.0558 72.9825 34.1947C72.9825 34.1947 58.5864 37.1686 58.5864 44.7685L75.9465 51.3772C75.9465 51.3772 108.973 46.4207 113.207 47.412C117.441 48.4033 114.477 60.2988 110.667 62.2814C110.667 62.2814 111.937 66.2466 114.477 67.8987C114.477 67.8987 106.009 81.4464 83.9914 74.1769C83.9914 74.1769 96.2704 94.6637 65.3611 99.9505C65.3611 99.9505 47.5776 95.9854 45.0371 77.4812C45.0371 77.4812 65.7845 78.8029 67.9016 81.116C67.9016 81.116 72.5591 78.4725 55.6225 76.1595C55.6225 76.1595 53.082 74.1769 62.3972 67.8987L56.0459 67.5683L54.3523 53.6902C54.3523 53.6902 15.398 60.6292 5.65948 84.0899C5.65948 84.0899 -15.9347 132.663 31.9112 237.74C31.9112 237.74 63.6674 242.697 84.8382 236.749C84.8382 236.749 86.1084 221.549 83.1445 219.567L69.1718 213.288C69.1718 213.288 96.6938 175.619 88.2255 168.68C88.2255 168.68 80.1806 162.732 78.0636 159.098C78.0636 159.098 89.9192 163.724 94.5768 163.724C94.5768 163.724 100.081 146.541 110.667 134.315C110.667 134.315 85.2616 216.923 95.847 239.723C95.847 239.723 166.981 255.584 163.17 232.123C163.17 232.123 163.593 223.532 152.585 216.262C152.585 216.262 172.062 199.08 172.909 196.767C172.909 196.767 188.998 189.828 177.143 161.411C165.287 132.994 176.719 160.75 176.719 160.75C176.719 160.75 257.592 102.924 205.512 57.3249C205.512 57.3249 184.764 38.1599 152.161 63.6031Z" fill="black"/>
<path d="M107.28 54.6815H96.271H67.0553L59.4338 52.0381C59.4338 52.0381 62.8211 61.2902 64.5148 61.951C64.5148 61.951 73.8299 62.2815 78.9109 59.638C78.9109 59.638 88.6495 65.5858 91.6134 65.9162C91.6134 65.9162 106.01 60.9597 107.28 54.6815Z" fill="black"/>
<path d="M75.099 63.9335L72.5585 68.5595C72.5585 68.5595 70.4414 71.203 75.099 71.203H78.4863V65.2552C78.4863 65.2552 76.7927 63.9335 75.9458 63.9335" fill="black"/>
<path d="M72.9844 63.9335L69.1737 69.2204L64.0927 68.5595C64.0927 68.5595 67.9034 64.2639 72.9844 63.9335Z" fill="black"/>
<path d="M222.871 118.124C222.871 118.124 203.817 148.524 184.764 161.411L187.727 180.576C187.727 180.576 197.466 178.593 198.313 179.254C199.16 179.915 225.411 220.228 224.988 222.541C224.988 222.541 216.096 225.515 216.096 227.828L215.249 234.767C215.249 234.767 262.249 238.401 275.798 234.767C275.798 234.767 290.194 222.21 278.762 195.115C278.762 195.115 258.438 177.272 258.014 171.324C258.014 171.324 254.204 161.08 260.555 148.524C260.978 147.863 270.717 115.481 222.871 118.124Z" fill="black"/>
<path d="M186.883 185.532C186.883 185.532 187.306 196.767 161.055 214.94C161.055 214.94 172.91 227.827 170.37 231.792L182.225 230.471C182.225 230.471 190.27 210.645 190.27 208.662C190.27 208.662 184.343 204.367 183.496 202.053C183.496 202.053 204.667 192.141 196.622 185.532C194.505 184.541 186.883 184.541 186.883 185.532Z" fill="black"/>
</svg>
